<svg id="emhjdaQFSzE1" xmlns="http://www.w3.org/2000/svg" xmlns:xlink="http://www.w3.org/1999/xlink" viewBox="0 0 512 512" shape-rendering="geometricPrecision" text-rendering="geometricPrecision"><defs><filter id="emhjdaQFSzE2-filter" x="-150%" width="400%" y="-150%" height="400%"><feGaussianBlur id="emhjdaQFSzE2-filter-drop-shadow-0-blur" in="SourceAlpha" stdDeviation="10,10"/><feOffset id="emhjdaQFSzE2-filter-drop-shadow-0-offset" dx="0" dy="0" result="tmp"/><feFlood id="emhjdaQFSzE2-filter-drop-shadow-0-flood" flood-color="#c37967"/><feComposite id="emhjdaQFSzE2-filter-drop-shadow-0-composite" operator="in" in2="tmp"/><feMerge id="emhjdaQFSzE2-filter-drop-shadow-0-merge" result="result"><feMergeNode id="emhjdaQFSzE2-filter-drop-shadow-0-merge-node-1"/><feMergeNode id="emhjdaQFSzE2-filter-drop-shadow-0-merge-node-2" in="SourceGraphic"/></feMerge></filter><linearGradient id="emhjdaQFSzE2-fill" x1="0" y1="0.5" x2="1" y2="0.5" spreadMethod="pad" gradientUnits="objectBoundingBox" gradientTransform="translate(0 0)"><stop id="emhjdaQFSzE2-fill-0" offset="20%" stop-color="#ffc600"/><stop id="emhjdaQFSzE2-fill-1" offset="47%" stop-color="#fa783e"/><stop id="emhjdaQFSzE2-fill-2" offset="71%" stop-color="#f66163"/><stop id="emhjdaQFSzE2-fill-3" offset="83.5114%" stop-color="#f34c87"/><stop id="emhjdaQFSzE2-fill-4" offset="96%" stop-color="#e903ff"/></linearGradient></defs><path d="M320,214.333v85.333c0,11.782-9.551,21.333-21.333,21.333h-85.333v64c0,17.58-20.069,27.615-34.133,17.067l-170.667-128c-11.378-8.533-11.378-25.6,0-34.133l170.667-128c14.063-10.547,34.133-.513,34.133,17.067v64h85.333C310.449,193,320,202.551,320,214.333Zm-42.667,21.334h-85.333c-11.782,0-21.333-9.551-21.333-21.333v-42.667L56.889,257l113.778,85.333v-42.667c0-11.782,9.551-21.333,21.333-21.333h85.333v-42.666ZM384,214.334v85.333c0,11.782-9.551,21.332-21.333,21.332s-21.333-9.551-21.333-21.333v-85.333c0-11.782,9.551-21.333,21.333-21.333s21.333,9.551,21.333,21.334Zm64,0v85.333c0,11.782-9.551,21.332-21.333,21.332s-21.333-9.551-21.333-21.333v-85.333c0-11.782,9.551-21.333,21.333-21.333s21.333,9.551,21.333,21.334Zm64,0v85.333c0,11.782-9.551,21.332-21.333,21.332s-21.333-9.551-21.333-21.333v-85.333c0-11.782,9.551-21.333,21.333-21.333s21.333,9.551,21.333,21.334Z" filter="url(#emhjdaQFSzE2-filter)" fill="url(#emhjdaQFSzE2-fill)" stroke="#f4b58d"/></svg>
