<svg id="e0wsFbzHIaN1" xmlns="http://www.w3.org/2000/svg" xmlns:xlink="http://www.w3.org/1999/xlink" viewBox="0 0 300 300" shape-rendering="geometricPrecision" text-rendering="geometricPrecision"><defs><filter id="e0wsFbzHIaN4-filter" x="-150%" width="400%" y="-150%" height="400%"><feGaussianBlur id="e0wsFbzHIaN4-filter-drop-shadow-0-blur" in="SourceAlpha" stdDeviation="2,5"/><feOffset id="e0wsFbzHIaN4-filter-drop-shadow-0-offset" dx="0" dy="-2" result="tmp"/><feFlood id="e0wsFbzHIaN4-filter-drop-shadow-0-flood" flood-color="#c37967"/><feComposite id="e0wsFbzHIaN4-filter-drop-shadow-0-composite" operator="in" in2="tmp"/><feMerge id="e0wsFbzHIaN4-filter-drop-shadow-0-merge" result="result"><feMergeNode id="e0wsFbzHIaN4-filter-drop-shadow-0-merge-node-1"/><feMergeNode id="e0wsFbzHIaN4-filter-drop-shadow-0-merge-node-2" in="SourceGraphic"/></feMerge></filter><linearGradient id="e0wsFbzHIaN4-fill" x1="0.5" y1="0.277609" x2="0.503224" y2="0.852199" spreadMethod="pad" gradientUnits="objectBoundingBox" gradientTransform="translate(0 0)"><stop id="e0wsFbzHIaN4-fill-0" offset="0%" stop-color="#ffc600"/><stop id="e0wsFbzHIaN4-fill-1" offset="33%" stop-color="#fa783e"/><stop id="e0wsFbzHIaN4-fill-2" offset="72%" stop-color="#f34c87"/><stop id="e0wsFbzHIaN4-fill-3" offset="100%" stop-color="#e903ff"/></linearGradient></defs><g transform="translate(0 0.000001)"><rect width="300.0006" height="299.9997" rx="0" ry="0" fill="#160740" stroke-width="0"/><path d="M-149.96126,0c0-82.842712,67.139943-150,149.96126-150s149.96126,67.157288,149.96126,150c0,39.857524-15.541502,76.084199-40.893568,102.947604c0,0,0,0,0,0s-84.370557.003544-107.80646.003977c-23.613741.000436-110.891213-.003977-110.891213-.003977s-.000002-.000003-.000002,0C-134.984268,76.083797,-149.96126,39.859492,-149.96126,0Z" transform="matrix(.912322 0 0 0.905757 149 155.00145)" filter="url(#e0wsFbzHIaN4-filter)" fill="url(#e0wsFbzHIaN4-fill)" stroke="#f4b58d" stroke-width="2"/><rect width="294.604459" height="3" rx="1.5" ry="1.5" transform="matrix(1.018318 0 0 1-.000512 110)" fill="#160740"/><rect width="300.0006" height="5" rx="2.5" ry="2.5" transform="matrix(.999996 0 0 1 0 130)" fill="#160740"/><rect width="300.0006" height="5" rx="2.5" ry="2.5" transform="translate(0 150)" fill="#160740"/><rect width="300.0006" height="7.5" rx="3.75" ry="3.75" transform="matrix(.999996 0 0 1 0 170)" fill="#160740"/><rect width="300.0006" height="10" rx="5" ry="5" transform="matrix(1.001408 0 0 1-.000404 189.71359)" fill="#160740"/><rect width="299.921895" height="10" rx="5" ry="5" transform="matrix(1.000261 0 0 1-.000088 210)" fill="#160740"/><rect width="299.697438" height="10" rx="5" ry="5" transform="matrix(1.001013 0 0 1-.000516 230)" fill="#160740"/></g></svg>
