<svg id="eoM4EjZUekR1" xmlns="http://www.w3.org/2000/svg" xmlns:xlink="http://www.w3.org/1999/xlink" viewBox="0 0 300 300" shape-rendering="geometricPrecision" text-rendering="geometricPrecision"><defs><filter id="eoM4EjZUekR2-filter" x="-150%" width="400%" y="-150%" height="400%"><feGaussianBlur id="eoM4EjZUekR2-filter-drop-shadow-0-blur" in="SourceAlpha" stdDeviation="5,5"/><feOffset id="eoM4EjZUekR2-filter-drop-shadow-0-offset" dx="0" dy="-5" result="tmp"/><feFlood id="eoM4EjZUekR2-filter-drop-shadow-0-flood" flood-color="#bb9dfb"/><feComposite id="eoM4EjZUekR2-filter-drop-shadow-0-composite" operator="in" in2="tmp"/><feMerge id="eoM4EjZUekR2-filter-drop-shadow-0-merge" result="result"><feMergeNode id="eoM4EjZUekR2-filter-drop-shadow-0-merge-node-1"/><feMergeNode id="eoM4EjZUekR2-filter-drop-shadow-0-merge-node-2" in="SourceGraphic"/></feMerge></filter><linearGradient id="eoM4EjZUekR2-fill" x1="0.5" y1="0.2293" x2="0.5" y2="1" spreadMethod="pad" gradientUnits="objectBoundingBox" gradientTransform="translate(0 0)"><stop id="eoM4EjZUekR2-fill-0" offset="0%" stop-color="#00fff8"/><stop id="eoM4EjZUekR2-fill-1" offset="16.81%" stop-color="#44b6fa"/><stop id="eoM4EjZUekR2-fill-2" offset="45.2516%" stop-color="#787efc"/><stop id="eoM4EjZUekR2-fill-3" offset="71.9177%" stop-color="#aa47fd"/><stop id="eoM4EjZUekR2-fill-4" offset="100%" stop-color="#e903ff"/></linearGradient><filter id="eoM4EjZUekR3-filter" x="-150%" width="400%" y="-150%" height="400%"><feGaussianBlur id="eoM4EjZUekR3-filter-drop-shadow-0-blur" in="SourceAlpha" stdDeviation="5,5"/><feOffset id="eoM4EjZUekR3-filter-drop-shadow-0-offset" dx="5" dy="1" result="tmp"/><feFlood id="eoM4EjZUekR3-filter-drop-shadow-0-flood" flood-color="#bb9dfb"/><feComposite id="eoM4EjZUekR3-filter-drop-shadow-0-composite" operator="in" in2="tmp"/><feMerge id="eoM4EjZUekR3-filter-drop-shadow-0-merge" result="result"><feMergeNode id="eoM4EjZUekR3-filter-drop-shadow-0-merge-node-1"/><feMergeNode id="eoM4EjZUekR3-filter-drop-shadow-0-merge-node-2" in="SourceGraphic"/></feMerge></filter><linearGradient id="eoM4EjZUekR3-fill" x1="0.5" y1="0.5" x2="0.5" y2="1" spreadMethod="pad" gradientUnits="objectBoundingBox" gradientTransform="translate(0 0)"><stop id="eoM4EjZUekR3-fill-0" offset="0%" stop-color="#00fff8"/><stop id="eoM4EjZUekR3-fill-1" offset="35%" stop-color="#52a7fa"/><stop id="eoM4EjZUekR3-fill-2" offset="68%" stop-color="#9f54fd"/><stop id="eoM4EjZUekR3-fill-3" offset="100%" stop-color="#e903ff"/></linearGradient><filter id="eoM4EjZUekR4-filter" x="-150%" width="400%" y="-150%" height="400%"><feGaussianBlur id="eoM4EjZUekR4-filter-drop-shadow-0-blur" in="SourceAlpha" stdDeviation="5,5"/><feOffset id="eoM4EjZUekR4-filter-drop-shadow-0-offset" dx="5" dy="-1" result="tmp"/><feFlood id="eoM4EjZUekR4-filter-drop-shadow-0-flood" flood-color="#bb9dfb"/><feComposite id="eoM4EjZUekR4-filter-drop-shadow-0-composite" operator="in" in2="tmp"/><feMerge id="eoM4EjZUekR4-filter-drop-shadow-0-merge" result="result"><feMergeNode id="eoM4EjZUekR4-filter-drop-shadow-0-merge-node-1"/><feMergeNode id="eoM4EjZUekR4-filter-drop-shadow-0-merge-node-2" in="SourceGraphic"/></feMerge></filter><linearGradient id="eoM4EjZUekR4-fill" x1="0.5" y1="0.2293" x2="0.5" y2="1" spreadMethod="pad" gradientUnits="objectBoundingBox" gradientTransform="translate(0 0)"><stop id="eoM4EjZUekR4-fill-0" offset="0%" stop-color="#00fff8"/><stop id="eoM4EjZUekR4-fill-1" offset="16.81%" stop-color="#44b6fa"/><stop id="eoM4EjZUekR4-fill-2" offset="45.2516%" stop-color="#787efc"/><stop id="eoM4EjZUekR4-fill-3" offset="71.9177%" stop-color="#aa47fd"/><stop id="eoM4EjZUekR4-fill-4" offset="100%" stop-color="#e903ff"/></linearGradient><filter id="eoM4EjZUekR5-filter" x="-150%" width="400%" y="-150%" height="400%"><feGaussianBlur id="eoM4EjZUekR5-filter-drop-shadow-0-blur" in="SourceAlpha" stdDeviation="5,5"/><feOffset id="eoM4EjZUekR5-filter-drop-shadow-0-offset" dx="0" dy="-2" result="tmp"/><feFlood id="eoM4EjZUekR5-filter-drop-shadow-0-flood" flood-color="#c37967"/><feComposite id="eoM4EjZUekR5-filter-drop-shadow-0-composite" operator="in" in2="tmp"/><feMerge id="eoM4EjZUekR5-filter-drop-shadow-0-merge" result="result"><feMergeNode id="eoM4EjZUekR5-filter-drop-shadow-0-merge-node-1"/><feMergeNode id="eoM4EjZUekR5-filter-drop-shadow-0-merge-node-2" in="SourceGraphic"/></feMerge></filter><linearGradient id="eoM4EjZUekR5-fill" x1="0.5" y1="0.2293" x2="0.5" y2="1" spreadMethod="pad" gradientUnits="objectBoundingBox" gradientTransform="translate(0 0)"><stop id="eoM4EjZUekR5-fill-0" offset="0%" stop-color="#ffc600"/><stop id="eoM4EjZUekR5-fill-1" offset="32%" stop-color="#fa783e"/><stop id="eoM4EjZUekR5-fill-2" offset="69%" stop-color="#f34c87"/><stop id="eoM4EjZUekR5-fill-3" offset="100%" stop-color="#e903ff"/></linearGradient><filter id="eoM4EjZUekR7-filter" x="-150%" width="400%" y="-150%" height="400%"><feGaussianBlur id="eoM4EjZUekR7-filter-drop-shadow-0-blur" in="SourceAlpha" stdDeviation="5,5"/><feOffset id="eoM4EjZUekR7-filter-drop-shadow-0-offset" dx="2" dy="-5" result="tmp"/><feFlood id="eoM4EjZUekR7-filter-drop-shadow-0-flood" flood-color="#bb9dfb"/><feComposite id="eoM4EjZUekR7-filter-drop-shadow-0-composite" operator="in" in2="tmp"/><feMerge id="eoM4EjZUekR7-filter-drop-shadow-0-merge" result="result"><feMergeNode id="eoM4EjZUekR7-filter-drop-shadow-0-merge-node-1"/><feMergeNode id="eoM4EjZUekR7-filter-drop-shadow-0-merge-node-2" in="SourceGraphic"/></feMerge></filter><linearGradient id="eoM4EjZUekR7-fill" x1="0.5" y1="0.2293" x2="0.5" y2="1" spreadMethod="pad" gradientUnits="objectBoundingBox" gradientTransform="translate(0 0)"><stop id="eoM4EjZUekR7-fill-0" offset="0%" stop-color="#00fff8"/><stop id="eoM4EjZUekR7-fill-1" offset="16.81%" stop-color="#44b6fa"/><stop id="eoM4EjZUekR7-fill-2" offset="45.2516%" stop-color="#787efc"/><stop id="eoM4EjZUekR7-fill-3" offset="71.9177%" stop-color="#aa47fd"/><stop id="eoM4EjZUekR7-fill-4" offset="100%" stop-color="#e903ff"/></linearGradient><filter id="eoM4EjZUekR8-filter" x="-150%" width="400%" y="-150%" height="400%"><feGaussianBlur id="eoM4EjZUekR8-filter-drop-shadow-0-blur" in="SourceAlpha" stdDeviation="5,5"/><feOffset id="eoM4EjZUekR8-filter-drop-shadow-0-offset" dx="-5" dy="0" result="tmp"/><feFlood id="eoM4EjZUekR8-filter-drop-shadow-0-flood" flood-color="#bb9dfb"/><feComposite id="eoM4EjZUekR8-filter-drop-shadow-0-composite" operator="in" in2="tmp"/><feMerge id="eoM4EjZUekR8-filter-drop-shadow-0-merge" result="result"><feMergeNode id="eoM4EjZUekR8-filter-drop-shadow-0-merge-node-1"/><feMergeNode id="eoM4EjZUekR8-filter-drop-shadow-0-merge-node-2" in="SourceGraphic"/></feMerge></filter><linearGradient id="eoM4EjZUekR8-fill" x1="0.5" y1="0.2293" x2="0.5" y2="1" spreadMethod="pad" gradientUnits="objectBoundingBox" gradientTransform="translate(0 0)"><stop id="eoM4EjZUekR8-fill-0" offset="0%" stop-color="#00fff8"/><stop id="eoM4EjZUekR8-fill-1" offset="16.81%" stop-color="#44b6fa"/><stop id="eoM4EjZUekR8-fill-2" offset="45.2516%" stop-color="#787efc"/><stop id="eoM4EjZUekR8-fill-3" offset="71.9177%" stop-color="#aa47fd"/><stop id="eoM4EjZUekR8-fill-4" offset="100%" stop-color="#e903ff"/></linearGradient><filter id="eoM4EjZUekR10-filter" x="-150%" width="400%" y="-150%" height="400%"><feGaussianBlur id="eoM4EjZUekR10-filter-drop-shadow-0-blur" in="SourceAlpha" stdDeviation="14,14"/><feOffset id="eoM4EjZUekR10-filter-drop-shadow-0-offset" dx="0" dy="0" result="tmp"/><feFlood id="eoM4EjZUekR10-filter-drop-shadow-0-flood" flood-color="rgba(200,200,200,0.4)"/><feComposite id="eoM4EjZUekR10-filter-drop-shadow-0-composite" operator="in" in2="tmp"/><feMerge id="eoM4EjZUekR10-filter-drop-shadow-0-merge" result="result"><feMergeNode id="eoM4EjZUekR10-filter-drop-shadow-0-merge-node-1"/><feMergeNode id="eoM4EjZUekR10-filter-drop-shadow-0-merge-node-2" in="SourceGraphic"/></feMerge><feGaussianBlur id="eoM4EjZUekR10-filter-inner-shadow-0-blur" in="result" stdDeviation="5,5"/><feOffset id="eoM4EjZUekR10-filter-inner-shadow-0-offset" dx="0" dy="0" result="tmp"/><feComposite id="eoM4EjZUekR10-filter-inner-shadow-0-composite" operator="arithmetic" k2="-1" k3="1" in2="SourceGraphic"/><feColorMatrix id="eoM4EjZUekR10-filter-inner-shadow-0-color-matrix" type="matrix" values="0 0 0 0 0.784314 0 0 0 0 0.784314 0 0 0 0 0.784314 0 0 0 0.3 0"/><feMerge id="eoM4EjZUekR10-filter-inner-shadow-0-merge" result="result"><feMergeNode id="eoM4EjZUekR10-filter-inner-shadow-0-merge-node-1" in="result"/><feMergeNode id="eoM4EjZUekR10-filter-inner-shadow-0-merge-node-2"/></feMerge></filter><linearGradient id="eoM4EjZUekR10-fill" x1="0.254212" y1="0.253724" x2="0.829304" y2="0.908577" spreadMethod="pad" gradientUnits="objectBoundingBox" gradientTransform="translate(0 0)"><stop id="eoM4EjZUekR10-fill-0" offset="0%" stop-color="#c8c8c8"/><stop id="eoM4EjZUekR10-fill-1" offset="100%" stop-color="#373737"/></linearGradient><filter id="eoM4EjZUekR11-filter" x="-150%" width="400%" y="-150%" height="400%"><feGaussianBlur id="eoM4EjZUekR11-filter-drop-shadow-0-blur" in="SourceAlpha" stdDeviation="14,14"/><feOffset id="eoM4EjZUekR11-filter-drop-shadow-0-offset" dx="0" dy="0" result="tmp"/><feFlood id="eoM4EjZUekR11-filter-drop-shadow-0-flood" flood-color="rgba(200,200,200,0.4)"/><feComposite id="eoM4EjZUekR11-filter-drop-shadow-0-composite" operator="in" in2="tmp"/><feMerge id="eoM4EjZUekR11-filter-drop-shadow-0-merge" result="result"><feMergeNode id="eoM4EjZUekR11-filter-drop-shadow-0-merge-node-1"/><feMergeNode id="eoM4EjZUekR11-filter-drop-shadow-0-merge-node-2" in="SourceGraphic"/></feMerge><feGaussianBlur id="eoM4EjZUekR11-filter-inner-shadow-0-blur" in="result" stdDeviation="5,5"/><feOffset id="eoM4EjZUekR11-filter-inner-shadow-0-offset" dx="0" dy="0" result="tmp"/><feComposite id="eoM4EjZUekR11-filter-inner-shadow-0-composite" operator="arithmetic" k2="-1" k3="1" in2="SourceGraphic"/><feColorMatrix id="eoM4EjZUekR11-filter-inner-shadow-0-color-matrix" type="matrix" values="0 0 0 0 0.784314 0 0 0 0 0.784314 0 0 0 0 0.784314 0 0 0 0.3 0"/><feMerge id="eoM4EjZUekR11-filter-inner-shadow-0-merge" result="result"><feMergeNode id="eoM4EjZUekR11-filter-inner-shadow-0-merge-node-1" in="result"/><feMergeNode id="eoM4EjZUekR11-filter-inner-shadow-0-merge-node-2"/></feMerge></filter><linearGradient id="eoM4EjZUekR11-fill" x1="0.254212" y1="0.253724" x2="0.829304" y2="0.908577" spreadMethod="pad" gradientUnits="objectBoundingBox" gradientTransform="translate(0 0)"><stop id="eoM4EjZUekR11-fill-0" offset="0%" stop-color="#c8c8c8"/><stop id="eoM4EjZUekR11-fill-1" offset="100%" stop-color="#373737"/></linearGradient><filter id="eoM4EjZUekR12-filter" x="-150%" width="400%" y="-150%" height="400%"><feGaussianBlur id="eoM4EjZUekR12-filter-drop-shadow-0-blur" in="SourceAlpha" stdDeviation="14,14"/><feOffset id="eoM4EjZUekR12-filter-drop-shadow-0-offset" dx="0" dy="0" result="tmp"/><feFlood id="eoM4EjZUekR12-filter-drop-shadow-0-flood" flood-color="rgba(200,200,200,0.4)"/><feComposite id="eoM4EjZUekR12-filter-drop-shadow-0-composite" operator="in" in2="tmp"/><feMerge id="eoM4EjZUekR12-filter-drop-shadow-0-merge" result="result"><feMergeNode id="eoM4EjZUekR12-filter-drop-shadow-0-merge-node-1"/><feMergeNode id="eoM4EjZUekR12-filter-drop-shadow-0-merge-node-2" in="SourceGraphic"/></feMerge><feGaussianBlur id="eoM4EjZUekR12-filter-inner-shadow-0-blur" in="result" stdDeviation="5,5"/><feOffset id="eoM4EjZUekR12-filter-inner-shadow-0-offset" dx="0" dy="0" result="tmp"/><feComposite id="eoM4EjZUekR12-filter-inner-shadow-0-composite" operator="arithmetic" k2="-1" k3="1" in2="SourceGraphic"/><feColorMatrix id="eoM4EjZUekR12-filter-inner-shadow-0-color-matrix" type="matrix" values="0 0 0 0 0.784314 0 0 0 0 0.784314 0 0 0 0 0.784314 0 0 0 0.3 0"/><feMerge id="eoM4EjZUekR12-filter-inner-shadow-0-merge" result="result"><feMergeNode id="eoM4EjZUekR12-filter-inner-shadow-0-merge-node-1" in="result"/><feMergeNode id="eoM4EjZUekR12-filter-inner-shadow-0-merge-node-2"/></feMerge></filter><linearGradient id="eoM4EjZUekR12-fill" x1="0.254212" y1="0.253724" x2="0.829304" y2="0.908577" spreadMethod="pad" gradientUnits="objectBoundingBox" gradientTransform="translate(0 0)"><stop id="eoM4EjZUekR12-fill-0" offset="0%" stop-color="#c8c8c8"/><stop id="eoM4EjZUekR12-fill-1" offset="100%" stop-color="#373737"/></linearGradient><filter id="eoM4EjZUekR13-filter" x="-150%" width="400%" y="-150%" height="400%"><feGaussianBlur id="eoM4EjZUekR13-filter-drop-shadow-0-blur" in="SourceAlpha" stdDeviation="14,14"/><feOffset id="eoM4EjZUekR13-filter-drop-shadow-0-offset" dx="0" dy="0" result="tmp"/><feFlood id="eoM4EjZUekR13-filter-drop-shadow-0-flood" flood-color="rgba(200,200,200,0.4)"/><feComposite id="eoM4EjZUekR13-filter-drop-shadow-0-composite" operator="in" in2="tmp"/><feMerge id="eoM4EjZUekR13-filter-drop-shadow-0-merge" result="result"><feMergeNode id="eoM4EjZUekR13-filter-drop-shadow-0-merge-node-1"/><feMergeNode id="eoM4EjZUekR13-filter-drop-shadow-0-merge-node-2" in="SourceGraphic"/></feMerge><feGaussianBlur id="eoM4EjZUekR13-filter-inner-shadow-0-blur" in="result" stdDeviation="5,5"/><feOffset id="eoM4EjZUekR13-filter-inner-shadow-0-offset" dx="0" dy="0" result="tmp"/><feComposite id="eoM4EjZUekR13-filter-inner-shadow-0-composite" operator="arithmetic" k2="-1" k3="1" in2="SourceGraphic"/><feColorMatrix id="eoM4EjZUekR13-filter-inner-shadow-0-color-matrix" type="matrix" values="0 0 0 0 0.784314 0 0 0 0 0.784314 0 0 0 0 0.784314 0 0 0 0.3 0"/><feMerge id="eoM4EjZUekR13-filter-inner-shadow-0-merge" result="result"><feMergeNode id="eoM4EjZUekR13-filter-inner-shadow-0-merge-node-1" in="result"/><feMergeNode id="eoM4EjZUekR13-filter-inner-shadow-0-merge-node-2"/></feMerge></filter><linearGradient id="eoM4EjZUekR13-fill" x1="0.254212" y1="0.253724" x2="0.829304" y2="0.908577" spreadMethod="pad" gradientUnits="objectBoundingBox" gradientTransform="translate(0 0)"><stop id="eoM4EjZUekR13-fill-0" offset="0%" stop-color="#c8c8c8"/><stop id="eoM4EjZUekR13-fill-1" offset="100%" stop-color="#373737"/></linearGradient><filter id="eoM4EjZUekR14-filter" x="-150%" width="400%" y="-150%" height="400%"><feGaussianBlur id="eoM4EjZUekR14-filter-drop-shadow-0-blur" in="SourceAlpha" stdDeviation="14,14"/><feOffset id="eoM4EjZUekR14-filter-drop-shadow-0-offset" dx="0" dy="0" result="tmp"/><feFlood id="eoM4EjZUekR14-filter-drop-shadow-0-flood" flood-color="rgba(200,200,200,0.4)"/><feComposite id="eoM4EjZUekR14-filter-drop-shadow-0-composite" operator="in" in2="tmp"/><feMerge id="eoM4EjZUekR14-filter-drop-shadow-0-merge" result="result"><feMergeNode id="eoM4EjZUekR14-filter-drop-shadow-0-merge-node-1"/><feMergeNode id="eoM4EjZUekR14-filter-drop-shadow-0-merge-node-2" in="SourceGraphic"/></feMerge><feGaussianBlur id="eoM4EjZUekR14-filter-inner-shadow-0-blur" in="result" stdDeviation="5,5"/><feOffset id="eoM4EjZUekR14-filter-inner-shadow-0-offset" dx="0" dy="0" result="tmp"/><feComposite id="eoM4EjZUekR14-filter-inner-shadow-0-composite" operator="arithmetic" k2="-1" k3="1" in2="SourceGraphic"/><feColorMatrix id="eoM4EjZUekR14-filter-inner-shadow-0-color-matrix" type="matrix" values="0 0 0 0 0.784314 0 0 0 0 0.784314 0 0 0 0 0.784314 0 0 0 0.3 0"/><feMerge id="eoM4EjZUekR14-filter-inner-shadow-0-merge" result="result"><feMergeNode id="eoM4EjZUekR14-filter-inner-shadow-0-merge-node-1" in="result"/><feMergeNode id="eoM4EjZUekR14-filter-inner-shadow-0-merge-node-2"/></feMerge></filter><linearGradient id="eoM4EjZUekR14-fill" x1="0.254212" y1="0.253724" x2="0.829304" y2="0.908577" spreadMethod="pad" gradientUnits="objectBoundingBox" gradientTransform="translate(0 0)"><stop id="eoM4EjZUekR14-fill-0" offset="0%" stop-color="#c8c8c8"/><stop id="eoM4EjZUekR14-fill-1" offset="100%" stop-color="#373737"/></linearGradient></defs><ellipse rx="150" ry="150" transform="matrix(.415965 0 0 0.395789 110.015656 111.15916)" filter="url(#eoM4EjZUekR2-filter)" fill="url(#eoM4EjZUekR2-fill)" stroke="#c8c8c8" stroke-width="2" stroke-opacity="0.5"/><path d="M-189.539999,0.381857C-189.539999,-82.460855,-82.842712,-150,0,-150s200.938108,67.539145,200.938108,150.381857" transform="matrix(.420359 0 0 0.427263 148.778949 202.952139)" filter="url(#eoM4EjZUekR3-filter)" fill="url(#eoM4EjZUekR3-fill)" stroke="#c8c8c8" stroke-width="2" stroke-opacity="0.5"/><ellipse rx="150" ry="150" transform="matrix(.384396 0 0 0.38553 233.245091 145.265792)" filter="url(#eoM4EjZUekR4-filter)" fill="url(#eoM4EjZUekR4-fill)" stroke="#c8c8c8" stroke-width="2" stroke-opacity="0.5"/><ellipse rx="150" ry="150" transform="matrix(.371627 0 0 0.351605 212.183512 67.415)" filter="url(#eoM4EjZUekR5-filter)" fill="url(#eoM4EjZUekR5-fill)" stroke="#f4b58d" stroke-width="2" stroke-opacity="0.5"/><path d="M-4.619233,182.657616l298.550854-.021119c-.05407.396487-.021062,1.057706-.129196,1.567524-.05883.557182-.242147,1.033861-.330381,1.482731l-295.221801.022265c-3.410159-1.541526-2.707272-1.439558-2.869476-3.051401Z" transform="matrix(.369905 0 0 0.976397 158.694082-109.780136)" fill="#160740" stroke="#160740" stroke-width="0.6"/><ellipse rx="150" ry="150" transform="matrix(.379951 0 0 0.386325 175.585691 125.388521)" filter="url(#eoM4EjZUekR7-filter)" fill="url(#eoM4EjZUekR7-fill)" stroke="#c8c8c8" stroke-width="2" stroke-opacity="0.5"/><ellipse rx="150" ry="150" transform="matrix(.420359 0 0 0.397717 69.104104 143.457742)" filter="url(#eoM4EjZUekR8-filter)" fill="url(#eoM4EjZUekR8-fill)" stroke="#c8c8c8" stroke-width="2" stroke-opacity="0.5"/><g transform="translate(.024805 13.457743)"><path style="mix-blend-mode:screen" d="M-24.675945,0c0-13.628148,24.730178-45.718289,24.730178-45.718289s24.621712,32.090141,24.621712,45.718289-11.047797,24.675945-24.675945,24.675945-24.675945-11.047797-24.675945-24.675945Z" transform="matrix(.369353 0 0 0.369353 95.384808 215.497235)" filter="url(#eoM4EjZUekR10-filter)" fill="url(#eoM4EjZUekR10-fill)" stroke-width="0"/><path style="mix-blend-mode:screen" d="M-24.675945,0c0-13.628148,24.730178-45.718289,24.730178-45.718289s24.621712,32.090141,24.621712,45.718289-11.047797,24.675945-24.675945,24.675945-24.675945-11.047797-24.675945-24.675945Z" transform="matrix(.369353 0 0 0.369353 150 215.497235)" filter="url(#eoM4EjZUekR11-filter)" fill="url(#eoM4EjZUekR11-fill)" stroke-width="0"/><path style="mix-blend-mode:screen" d="M-24.675945,0c0-13.628148,24.730178-45.718289,24.730178-45.718289s24.621712,32.090141,24.621712,45.718289-11.047797,24.675945-24.675945,24.675945-24.675945-11.047797-24.675945-24.675945Z" transform="matrix(.369353 0 0 0.369353 202.903288 215.497235)" filter="url(#eoM4EjZUekR12-filter)" fill="url(#eoM4EjZUekR12-fill)" stroke-width="0"/><path style="mix-blend-mode:screen" d="M-24.675945,0c0-13.628148,24.730178-45.718289,24.730178-45.718289s24.621712,32.090141,24.621712,45.718289-11.047797,24.675945-24.675945,24.675945-24.675945-11.047797-24.675945-24.675945Z" transform="matrix(.369353 0 0 0.369353 175.560886 241.497556)" filter="url(#eoM4EjZUekR13-filter)" fill="url(#eoM4EjZUekR13-fill)" stroke-width="0"/><path style="mix-blend-mode:screen" d="M-24.675945,0c0-13.628148,24.730178-45.718289,24.730178-45.718289s24.621712,32.090141,24.621712,45.718289-11.047797,24.675945-24.675945,24.675945-24.675945-11.047797-24.675945-24.675945Z" transform="matrix(.369353 0 0 0.369353 122.72721 241.497556)" filter="url(#eoM4EjZUekR14-filter)" fill="url(#eoM4EjZUekR14-fill)" stroke-width="0"/></g><g><path d="" fill="#160740" stroke="#160740" stroke-width="0.6"/><path d="" fill="#160740" stroke="#160740" stroke-width="0.6"/><path d="M23.910205,185.754326c-1.465277-.846172-3.14325-1.92463-4.7267-2.992025l281.179209-.060467c-.91508.820589-4.908502,3.3557-5.943889,3.9218-.645417.444267-3.745111,2.202683-6.587387,3.443434l-254.750155.299354c-1.462669-.705724-7.610258-3.677436-9.171078-4.612096Z" transform="matrix(.846258 0 0 0.90407 14.601728 24.825255)" fill="#160740" stroke="#160740" stroke-width="0.6"/><path d="M25.834815,185.31874c-.373763-.553055-.983572-1.331422-1.53437-2.232696l260.995758-.177261c-.688497,1.156303-1.475357,2.364827-1.829441,2.918919s-1.705612,2.508178-2.301561,3.226123l-252.456269-.027031c-.509787-.620728-2.401652-2.991126-2.874117-3.708054Z" transform="matrix(1.016703 0 0 0.976397-8.159938-3.591587)" fill="#160740" stroke="#160740" stroke-width="0.6"/><path d="M14.763602,185.246458c-.186312-.531389-.472115-1.495293-.688497-2.232698l274.412767-.026854c-.255727,1.01255-.585224,2.090223-.781939,2.747206-.255726.759643-.5508,1.745121-.767185,2.373661L15.68816,187.724959c-.295074-.798857-.747515-1.884477-.924558-2.478501Z" transform="matrix(1.016703 0 0 0.976397-5.005909-18.667865)" fill="#160740" stroke="#160740" stroke-width="0.6"/><path d="M12.187317,184.341876c-.019671-.367836-.078686-.85944-.098352-1.310942l278.636591-.139874c-.039343.757889-.039342,1.164702-.066175,1.570642-.012512.411393-.051853,1.018731-.091198,1.501881l-278.262837-.309899c-.039343-.409669-.098358-.943972-.118029-1.311808Z" transform="matrix(1.016703 0 0 0.976397-5.395674-31.574283)" fill="#160740" stroke="#160740" stroke-width="0.6"/><path d="M118.768563,198.948462c-2.202232-4.728869-5.367945-11.344082-7.983109-16.276684l193.064828-.673221c-6.093851,6.372918-12.925344,13.291409-17.56018,17.11778-3.30335,3.127991-9.061279,8.680832-14.704509,13.011897l-146.623247,1.006832c-1.65777-3.721276-4.738296-10.985429-6.193783-14.186604Z" transform="matrix(.145307 0 0 0.160715 211.244558 70.750102)" fill="#160740" stroke="#160740" stroke-width="0.6"/><path d="M211.914454,183.829526c-.314746-.49161-.8609-1.173216-1.416342-1.945931l40.666935.14664c-.338864.746579-.810979,1.586398-1.027364,2.057519-.255728.450641-.629487,1.35191-.885217,1.802547l-35.961012.049024c-.448947-.75788-1.062254-1.618189-1.377-2.109799Z" transform="matrix(1.016703 0 0 0.976397 6.833208-88.576229)" fill="#160740" stroke="#160740" stroke-width="0.6"/><path d="M202.20541,181.549881c-.428047-.409669-1.217451-1.040492-1.73124-1.459118l54.104762.007632c-.074441.464628-.269539,1.279085-.407238,1.750204-.118029.47112-.305839,1.011001-.436117,1.453571l-49.641864.004498c-.492688-.471816-1.354983-1.326633-1.888303-1.756787Z" transform="matrix(1.016703 0 0 0.976397 6.977411-96.947651)" fill="#160740" stroke="#160740" stroke-width="0.6"/><path d="M12.075639,183.778866c.039344-.254033.078687-.642798.1377-.886135l277.286823.283717c.039344.286315.098355.573541.1377.819346.059017.327735.098361.660155.137702.94224l-277.798282-.245916c.019671-.317538.078684-.65922.098357-.913252Z" transform="matrix(1.016703 0 0 0.976397-5.005908-43.575913)" fill="#160740" stroke="#160740" stroke-width="0.6"/></g><path d="M-2.646411,183.456906c.053883-.255109.161664-.470969.269434-.726077l294.457762.029524c.107773.215861.16166.431723.269434.647581.107774.255108.269435.588713.323321.765327l-295.589382.029347c.053888-.235485.215548-.490593.269431-.745702Z" transform="matrix(.371148 0 0 1.019175 158.394485-126.440442)" fill="#160740" stroke="#160740" stroke-width="0.6"/></svg>
