<svg id="eX4CyPLcW1S1" xmlns="http://www.w3.org/2000/svg" xmlns:xlink="http://www.w3.org/1999/xlink" viewBox="0 0 300 300" shape-rendering="geometricPrecision" text-rendering="geometricPrecision"><defs><filter id="eX4CyPLcW1S3-filter" x="-150%" width="400%" y="-150%" height="400%"><feGaussianBlur id="eX4CyPLcW1S3-filter-drop-shadow-0-blur" in="SourceAlpha" stdDeviation="2,5"/><feOffset id="eX4CyPLcW1S3-filter-drop-shadow-0-offset" dx="0" dy="-2" result="tmp"/><feFlood id="eX4CyPLcW1S3-filter-drop-shadow-0-flood" flood-color="#c37967"/><feComposite id="eX4CyPLcW1S3-filter-drop-shadow-0-composite" operator="in" in2="tmp"/><feMerge id="eX4CyPLcW1S3-filter-drop-shadow-0-merge" result="result"><feMergeNode id="eX4CyPLcW1S3-filter-drop-shadow-0-merge-node-1"/><feMergeNode id="eX4CyPLcW1S3-filter-drop-shadow-0-merge-node-2" in="SourceGraphic"/></feMerge></filter><linearGradient id="eX4CyPLcW1S3-fill" x1="0.5" y1="0.277609" x2="0.503224" y2="0.852199" spreadMethod="pad" gradientUnits="objectBoundingBox" gradientTransform="translate(0 0)"><stop id="eX4CyPLcW1S3-fill-0" offset="0%" stop-color="#ffc600"/><stop id="eX4CyPLcW1S3-fill-1" offset="33%" stop-color="#fa783e"/><stop id="eX4CyPLcW1S3-fill-2" offset="72%" stop-color="#f34c87"/><stop id="eX4CyPLcW1S3-fill-3" offset="100%" stop-color="#e903ff"/></linearGradient></defs><g transform="translate(0 0.000001)"><path d="M-149.96126,0c0-82.842712,67.139943-150,149.96126-150s149.96126,67.157288,149.96126,150c0,39.857524-15.541502,76.084199-40.893568,102.947604c0,0,0,0,0,0s-84.370557.003544-107.80646.003977c-23.613741.000436-110.891213-.003977-110.891213-.003977s-.000002-.000003-.000002,0C-134.984268,76.083797,-149.96126,39.859492,-149.96126,0Z" transform="matrix(.912322 0 0 0.905757 150 155.00145)" filter="url(#eX4CyPLcW1S3-filter)" fill="url(#eX4CyPLcW1S3-fill)" stroke="#f4b58d" stroke-width="2"/><path d="" fill="none" stroke="#3f5787" stroke-width="0.6"/><path d="" fill="none" stroke="#3f5787" stroke-width="0.6"/><path d="" fill="none" stroke="#3f5787" stroke-width="0.6"/><path d="M44.63302,233.377066c.082419-.49361.280229-1.57955.329682-1.842809.0553-.319514.154205-.878937.247263-1.415014c104.726219-.017272,205.58309-.056886,209.478232-.056893.082422.430915.197812,1.027561.280232,1.491622s.164841.994415.247263,1.458476c-127.58097.127746-196.407012.350421-210.582672.364618Z" transform="matrix(1.213281 0 0 0.60337-31.946345-30.134228)" fill="#160740" stroke="#160740" stroke-miterlimit="10"/><path d="M40.234633,234.939001c.08242-1.140851.178291-1.945039.244227-2.619406.068972-.715512.134909-1.375892.21733-2.102311l218.494361-.250356c.098905.888066.181327,1.611675.247264,2.335284.053914.591661.164842,1.545893.230779,2.401068-127.58097.185943-205.258301.215056-219.433961.235721Z" transform="matrix(1.213281 0 0 0.60337-31.946345-10.895553)" fill="#160740" stroke="#160740"/><path d="M38.301213,238.443491c.000509-1.103378.016028-2.817205.049452-4.08125.021922-1.369816.04037-2.55691.095713-3.966582l222.665486-.238957c.016485,1.070492.068504,2.073574.082421,2.977306.016485,1.070494.033491,2.335395.049454,3.552684-127.58097.268484-208.766866,1.726963-222.942526,1.756799Z" transform="matrix(1.213281 0 0 0.60337-31.731671 8.480275)" fill="#160740" stroke="#160740"/><path d="M39.608323,237.153119c-.146416-1.89198-.230469-2.973328-.3132-4.230397-.082421-1.173394-.176985-2.502435-.23078-3.489305l221.746012-.320835c-.075008,1.862519-.140944,2.890081-.230781,4.342277-.078013,1.261059-.164842,2.386595-.263749,3.878218-127.58097.239334-206.531842-.206555-220.707502-.179958Z" transform="matrix(1.213281 0 0 0.60337-31.946345 31.24229)" fill="#160740" stroke="#160740"/><path d="M38.864445,237.013908c-.39599-1.408627-.72311-2.73729-.974013-3.755451-.1951-.790126-.517925-2.185136-.751086-3.244549l225.546319.015234c-.214697.952807-.627903,2.694668-.782855,3.315331s-.550941,2.242396-.809194,3.123337c-127.58097.23472-208.053511.520013-222.229171.546097Z" transform="matrix(1.161649 0 0 1-24.212646-40.939512)" fill="#160740" stroke="#160740"/><path d="M41.070122,237.011227c-.486339-1.1-1.404987-3.12-1.729209-3.88-.288202-.68-1.044733-2.52-1.361776-3.345887l223.584064-.656997c-.451936,1.184042-1.31654,3.224042-1.621136,3.943663-.301099.71136-1.19045,2.680379-1.783246,3.954302-127.58097.27721-202.913037-.045888-217.088697-.015081Z" transform="matrix(1.110334 0 0 1-16.303784-20.427754)" fill="#160740" stroke="#160740"/><path d="M43.8209,239.083302c-.74-.94-2.857862-3.670799-3.660069-4.798902-.915041-1.191009-2.080724-2.933069-2.9614-4.20399l225.111631.026722c-1.02756,1.488726-1.82612,2.63512-2.918911,4.145344-.928649,1.283382-2.228649,2.943382-3.273475,4.238125-127.58097.349381-198.122116.553874-212.297776.592701Z" fill="#160740" stroke="#160740"/><path d="" transform="translate(0 0.000001)" fill="none" stroke="#3f5787" stroke-width="0.6"/></g></svg>
