<svg id="eCw43ESztWX1" xmlns="http://www.w3.org/2000/svg" xmlns:xlink="http://www.w3.org/1999/xlink" viewBox="0 0 300 300" shape-rendering="geometricPrecision" text-rendering="geometricPrecision"><defs><filter id="eCw43ESztWX4-filter" x="-150%" width="400%" y="-150%" height="400%"><feGaussianBlur id="eCw43ESztWX4-filter-drop-shadow-0-blur" in="SourceAlpha" stdDeviation="5,5"/><feOffset id="eCw43ESztWX4-filter-drop-shadow-0-offset" dx="0" dy="0" result="tmp"/><feFlood id="eCw43ESztWX4-filter-drop-shadow-0-flood" flood-color="#d2dbed"/><feComposite id="eCw43ESztWX4-filter-drop-shadow-0-composite" operator="in" in2="tmp"/><feMerge id="eCw43ESztWX4-filter-drop-shadow-0-merge" result="result"><feMergeNode id="eCw43ESztWX4-filter-drop-shadow-0-merge-node-1"/><feMergeNode id="eCw43ESztWX4-filter-drop-shadow-0-merge-node-2" in="SourceGraphic"/></feMerge></filter><linearGradient id="eCw43ESztWX4-fill" x1="0.128304" y1="0.171702" x2="0.768818" y2="0.938256" spreadMethod="pad" gradientUnits="objectBoundingBox" gradientTransform="translate(0 0)"><stop id="eCw43ESztWX4-fill-0" offset="0%" stop-color="#d2dbed"/><stop id="eCw43ESztWX4-fill-1" offset="26%" stop-color="#91a3cd"/><stop id="eCw43ESztWX4-fill-2" offset="53%" stop-color="#859aaa"/><stop id="eCw43ESztWX4-fill-3" offset="84%" stop-color="#3e4f5a"/><stop id="eCw43ESztWX4-fill-4" offset="100%" stop-color="#3e464e"/></linearGradient></defs><g transform="translate(0 0.000001)"><rect width="300.0006" height="299.9997" rx="0" ry="0" fill="#160740" stroke-width="0"/><path d="M-132.496843,0c-.455751-88.606424,79.751713-157.207706,142.021898-157.207706-15.243045,10.833337-25.017887,19.823684-34.503997,33.604877-7.400275,10.750942-15.715482,23.836857-21.106452,46.909088-2.321863,11.281865-3.457663,20.378436-3.361959,28.764365.244952,21.463554,3.789206,33.003212,8.259351,48.274019c3.537489,8.251787,7.739699,15.721483,12.981932,24.477541c6.100014,10.188804,17.16516,23.018259,26.731659,30.302828s12.685654,10.068331,20.182042,13.603092C36.214761,79.294766,58.760143,85.147006,80.99804,85.526691c18.705064.319366,36.527497-3.694582,50.904732-9.086489C109.57013,95.624182,83.611101,132.496847,0,132.496843s-132.496843-59.320857-132.496843-132.496843Z" transform="matrix(.8 0 0 0.8 150.439023 148.999983)" filter="url(#eCw43ESztWX4-filter)" fill="url(#eCw43ESztWX4-fill)" stroke-width="0"/><rect style="mix-blend-mode:darken" width="294.604459" height="3" rx="1.5" ry="1.5" transform="matrix(.352464 0 0 1 33.264151 152.999999)" fill="#160740"/><rect style="mix-blend-mode:darken" width="300.0006" height="5" rx="2.5" ry="2.5" transform="matrix(.395511 0 0 1 34.673447 167.999999)" fill="#160740"/><rect style="mix-blend-mode:darken" width="300.0006" height="5" rx="2.5" ry="2.5" transform="matrix(.445706 0 0 1 36.144782 184.582474)" fill="#160740"/><rect style="mix-blend-mode:darken" width="300.0006" height="7.5" rx="3.75" ry="3.75" transform="matrix(.586651 0 0 1 46.00239 200.653168)" fill="#160740"/><rect style="mix-blend-mode:darken" width="300.0006" height="10" rx="5" ry="5" transform="matrix(.725449 0 0 1 41.394448 220.841683)" fill="#160740"/><rect style="mix-blend-mode:darken" width="299.921895" height="10" rx="5" ry="5" transform="matrix(.722096 0 0 1 41.713628 239.006633)" fill="#160740"/></g></svg>
